HIERARCHY
ROOT root
{
	OFFSET 0.000000 0.000000 0.000000
	CHANNELS 6 Xposition Yposition Zposition Zrotation Yrotation Xrotation
	JOINT lhip
	{
		OFFSET 0.058581 -0.082280 -0.017664
		CHANNELS 3 Zrotation Yrotation Xrotation
		JOINT lknee
		{
			OFFSET 0.043451 -0.386469 0.008037
			CHANNELS 3 Zrotation Yrotation Xrotation
			JOINT lankle
			{
				OFFSET -0.014790 -0.426874 -0.037428
				CHANNELS 3 Zrotation Yrotation Xrotation
				JOINT ltoe
				{
					OFFSET 0.041054 -0.060286 0.122042
					CHANNELS 3 Zrotation Yrotation Xrotation
					End Site
					{
						OFFSET 0.000000 0.000000 0.000000
					}
				}
			}
		}
	}
	JOINT rhip
	{
		OFFSET -0.060310 -0.090513 -0.013543
		CHANNELS 3 Zrotation Yrotation Xrotation
		JOINT rknee
		{
			OFFSET -0.043257 -0.383688 -0.004843
			CHANNELS 3 Zrotation Yrotation Xrotation
			JOINT rankle
			{
				OFFSET 0.019056 -0.420046 -0.034562
				CHANNELS 3 Zrotation Yrotation Xrotation
				JOINT rtoe
				{
					OFFSET -0.034840 -0.062106 0.130323
					CHANNELS 3 Zrotation Yrotation Xrotation
					End Site
					{
						OFFSET 0.000000 0.000000 0.000000
					}
				}
			}
		}
	}
	JOINT lowerback
	{
		OFFSET 0.004439 0.124404 -0.038385
		CHANNELS 3 Zrotation Yrotation Xrotation
		JOINT upperback
		{
			OFFSET 0.004488 0.137956 0.026820
			CHANNELS 3 Zrotation Yrotation Xrotation
			JOINT chest
			{
				OFFSET -0.002265 0.056032 0.002855
				CHANNELS 3 Zrotation Yrotation Xrotation
				JOINT lowerneck
				{
					OFFSET -0.013390 0.211636 -0.033468
					CHANNELS 3 Zrotation Yrotation Xrotation
					JOINT upperneck
					{
						OFFSET 0.010113 0.088937 0.050410
						CHANNELS 3 Zrotation Yrotation Xrotation
						End Site
						{
							OFFSET 0.000000 0.000000 0.000000
						}
					}
				}
				JOINT lclavicle
				{
					OFFSET 0.071702 0.114000 -0.018898
					CHANNELS 3 Zrotation Yrotation Xrotation
					JOINT lshoulder
					{
						OFFSET 0.122921 0.045205 -0.019046
						CHANNELS 3 Zrotation Yrotation Xrotation
						JOINT lelbow
						{
							OFFSET 0.255332 -0.015649 -0.022946
							CHANNELS 3 Zrotation Yrotation Xrotation
							JOINT lwrist
							{
								OFFSET 0.265709 0.012698 -0.007375
								CHANNELS 3 Zrotation Yrotation Xrotation
								End Site
								{
									OFFSET 0.000000 0.000000 0.000000
								}
							}
						}
					}
				}
				JOINT rclavicle
				{
					OFFSET -0.082954 0.112472 -0.023707
					CHANNELS 3 Zrotation Yrotation Xrotation
					JOINT rshoulder
					{
						OFFSET -0.113228 0.046853 -0.008472
						CHANNELS 3 Zrotation Yrotation Xrotation
						JOINT relbow
						{
							OFFSET -0.260127 -0.014369 -0.031269
							CHANNELS 3 Zrotation Yrotation Xrotation
							JOINT rwrist
							{
								OFFSET -0.269108 0.006794 -0.006027
								CHANNELS 3 Zrotation Yrotation Xrotation
								End Site
								{
									OFFSET 0.000000 0.000000 0.000000
								}
							}
						}
					}
				}
			}
		}
	}
}
MOTION
Frames: 13
Frame Time: 0.033333
1.137673 0.620703 0.968306 75.709457 3.824768 87.650233 5.891266 5.980918 3.316341 -1.229895 3.969407 6.694903 8.142591 15.130241 -29.159093 0.000000 -0.000000 0.000000 -3.470257 1.310798 -0.761258 1.902897 13.880603 9.059327 2.028236 2.540505 -26.375258 0.000000 -0.000000 0.000000 -0.402415 -3.338190 -0.342075 3.601251 -2.698191 -0.138525 4.868075 3.833136 -1.238513 -6.370216 -2.654421 10.584015 5.462724 8.151180 -9.599991 -0.010576 -6.457799 -1.528991 -36.034363 -20.530045 3.722411 122.752292 -61.763066 -138.439397 3.610978 -21.404016 -84.727270 -4.303852 11.998665 -2.563277 19.839207 24.689514 -4.977121 -116.517682 63.933418 -126.527090 9.960256 27.032921 -57.402988 
1.139359 0.625636 0.967428 71.931160 4.065609 87.575668 5.442937 6.642400 3.383757 -0.880476 5.555539 7.536395 8.674868 16.709722 -29.681486 0.000000 -0.000000 0.000000 -3.506952 2.207653 -1.875779 2.026403 15.719755 9.684976 2.179186 3.303246 -26.286791 0.000000 -0.000000 0.000000 0.211967 -3.873649 -0.438493 3.451214 -2.687785 -0.331861 4.666740 3.776782 -1.000611 -6.782269 -1.604358 11.226091 4.460294 9.663577 -9.542971 0.378393 -6.808377 -1.853265 -35.371693 -20.424769 2.692305 118.914821 -61.692033 -134.847342 4.664944 -19.254048 -83.400004 -5.035318 12.426925 -3.067385 18.561936 26.307488 -6.410956 -112.221699 63.518263 -122.865659 7.913086 25.252643 -56.271602 
1.140741 0.631008 0.966336 67.939377 4.300703 87.413272 5.141761 7.627465 3.451718 -0.679407 7.186804 8.472447 8.886869 18.018550 -30.269615 0.000000 -0.000000 0.000000 -3.549549 3.082420 -2.973000 2.157249 17.561231 10.215752 2.452686 4.248697 -26.061374 0.000000 -0.000000 0.000000 0.804600 -4.443675 -0.242552 3.215003 -2.706342 -0.523473 4.476015 3.653282 -0.834574 -7.197902 -0.489653 11.660511 3.421367 11.396424 -9.765082 0.610264 -7.308662 -2.232761 -34.266659 -20.219216 1.507326 115.005757 -61.916879 -130.942595 5.301249 -17.780855 -81.509983 -5.693358 12.787172 -3.746205 17.085713 27.631681 -7.983003 -108.186966 63.536855 -119.653555 6.070396 23.798242 -55.483804 
1.142409 0.636692 0.965055 63.785444 4.547081 87.164913 4.829389 8.815026 3.707022 -0.389937 8.892765 9.124134 9.016546 19.212053 -30.737377 0.000000 -0.000000 0.000000 -3.478044 3.993113 -3.938680 2.139286 19.461600 10.528787 2.717386 5.153289 -25.727558 0.000000 -0.000000 0.000000 1.438764 -5.110620 0.054987 2.958518 -2.773026 -0.724621 4.263290 3.505876 -0.693960 -7.697756 0.773194 12.058244 2.377988 13.273738 -10.040718 0.782848 -7.930782 -2.616336 -33.194168 -19.967760 0.358776 110.494087 -62.099197 -126.825971 5.791398 -16.800512 -80.099172 -6.405066 13.187126 -4.343862 15.576872 28.691841 -9.400974 -104.280073 63.545861 -116.676912 4.407460 22.627879 -55.015318 
1.143806 0.642864 0.963705 59.715145 4.817449 86.947684 4.442258 9.901527 3.637385 0.102620 10.635737 10.099981 9.138614 20.353633 -31.215957 0.000000 -0.000000 0.000000 -3.341246 4.863960 -4.990390 2.095987 21.209369 10.808173 3.043207 6.136632 -25.303158 0.000000 -0.000000 0.000000 2.084825 -5.911613 0.439704 2.706043 -3.005766 -1.041945 4.048170 3.322233 -0.508903 -8.219543 2.177580 12.375209 1.206726 15.238423 -10.406573 0.947192 -8.482877 -2.952340 -32.358490 -19.917005 -0.996652 105.169606 -62.290154 -121.743156 5.988391 -16.039583 -78.344797 -7.139034 13.441824 -4.840026 14.052200 29.739796 -10.950343 -100.300656 63.751764 -113.512180 2.735030 21.679261 -54.564591 
1.144834 0.649640 0.962245 55.718507 5.054205 86.728590 3.935118 10.632138 3.241746 0.755859 12.537208 11.542387 9.163847 21.651973 -31.786204 0.000000 -0.000000 0.000000 -3.239929 5.895391 -6.055602 2.083458 22.980917 11.049251 3.447132 7.027161 -24.874698 0.000000 -0.000000 0.000000 2.651581 -6.744403 1.016314 2.480858 -3.344264 -1.556445 3.835898 3.085037 -0.433260 -8.741541 3.749233 12.745104 0.031671 17.275345 -10.651059 0.928905 -9.250648 -3.104214 -31.372986 -19.761765 -2.302955 99.043633 -62.320771 -115.942949 5.956274 -15.638356 -76.569543 -7.680341 13.718824 -5.134939 12.431606 30.463230 -12.409404 -96.614035 63.815886 -110.545062 1.037890 20.741695 -54.212974 
1.146184 0.656866 0.960431 51.612081 5.349784 86.406323 3.564394 11.396472 2.804544 1.390999 14.429469 13.201257 9.275994 22.950662 -32.400316 0.000000 -0.000000 0.000000 -3.031407 6.891764 -7.034351 2.091665 24.919137 11.237889 3.830619 7.929859 -24.436015 0.000000 -0.000000 0.000000 3.288409 -7.579475 1.784620 2.290115 -3.690125 -2.111189 3.632883 2.950262 -0.340904 -9.397584 5.329381 12.824593 -1.107514 19.368929 -10.895637 0.851466 -10.034696 -3.330959 -30.445268 -19.559193 -3.395011 92.994790 -62.193977 -110.891457 6.253422 -14.969591 -75.424104 -8.268104 13.896289 -5.505009 10.850301 30.884661 -13.774402 -92.936475 63.740007 -107.512944 -0.102010 19.960076 -53.525771 
1.147489 0.664914 0.958157 47.396251 5.530140 86.047864 3.084182 12.284554 2.430182 1.965242 16.261135 14.635549 9.390500 24.287507 -32.940003 0.000000 -0.000000 0.000000 -2.963223 7.870961 -8.133321 2.205856 26.854959 11.511695 4.299870 8.985716 -23.966205 0.000000 -0.000000 0.000000 3.930549 -8.386945 2.659466 2.023674 -3.951292 -2.644241 3.387857 2.790965 -0.267705 -10.129875 7.087434 12.806604 -2.247582 21.381506 -11.419541 0.756414 -10.879544 -3.542993 -29.543407 -19.370239 -4.453773 86.312131 -61.760874 -105.289391 6.709491 -13.733266 -74.009582 -8.709752 14.028375 -5.821727 9.092992 31.126499 -15.215056 -88.955537 63.631232 -104.055108 -1.612314 18.857916 -52.176695 
1.148953 0.673726 0.955580 43.240708 5.630603 85.740483 2.545115 13.317422 1.885462 2.550175 18.011573 16.129749 9.382667 25.515011 -33.510362 0.000000 -0.000000 0.000000 -2.970699 8.789115 -9.373028 2.367460 28.548144 11.848402 4.846946 10.187347 -23.387030 0.000000 -0.000000 0.000000 4.688822 -9.243098 3.562142 1.626299 -4.184752 -3.143218 3.104004 2.534142 -0.392642 -10.912336 9.023223 12.821590 -3.450467 23.596746 -12.099158 0.586219 -11.834884 -3.681918 -28.585579 -18.786035 -5.524351 78.947739 -61.255221 -98.831843 6.718161 -13.394613 -72.715881 -9.159481 14.182840 -6.154078 7.694502 31.340947 -16.538296 -84.400212 63.618771 -100.038337 -2.632771 18.260196 -51.334568 
1.150802 0.684150 0.953452 38.733086 5.630525 85.909455 1.545907 14.047751 0.633451 3.202713 19.446348 17.660025 10.180431 27.916158 -33.341542 0.000000 -0.000000 0.000000 -4.220677 12.945194 -10.923224 3.460823 28.391671 11.253085 6.547666 9.608361 -21.869347 0.000000 -0.000000 0.000000 5.431059 -7.377515 3.310943 3.800940 -8.068132 -2.842160 1.002200 3.782670 -0.167569 -14.441733 14.273350 12.220310 0.106582 23.828230 -13.967922 -0.930287 -13.958657 -6.163481 -27.074073 -15.797019 -2.961766 72.249423 -58.209989 -93.213272 4.999961 -19.177090 -72.224283 -9.950508 14.683608 -8.383198 5.652704 30.425784 -21.506414 -75.650451 68.075470 -94.972163 -4.360227 19.012684 -48.453583 
1.153439 0.693660 0.950497 34.522811 5.529340 85.704187 0.876501 15.032870 0.003268 3.741778 21.464838 18.964159 10.260178 28.779968 -33.718879 0.000000 -0.000000 0.000000 -4.429988 13.681648 -12.455606 3.756851 29.983698 11.807999 7.189973 10.814254 -21.180679 0.000000 -0.000000 0.000000 6.326584 -8.167029 3.914461 3.422441 -8.528398 -2.725783 0.577944 3.856658 -0.503017 -15.751942 16.372818 12.009075 -0.822085 25.840491 -15.104869 -1.678563 -15.144076 -6.336437 -25.703099 -14.531920 -3.614649 66.338956 -56.860313 -88.542492 5.775156 -18.407820 -71.852239 -9.906182 15.099571 -8.356356 3.636135 30.153223 -23.066365 -69.029671 67.115160 -89.215014 -5.891356 18.217714 -46.643254 
1.156592 0.703386 0.947602 30.806655 5.352834 85.509814 0.118292 15.869675 -0.589014 4.152916 23.186772 20.028608 10.291789 29.713095 -34.173130 0.000000 -0.000000 0.000000 -4.693132 14.221790 -13.878933 4.089893 31.400819 12.353169 7.769567 11.708656 -20.560435 0.000000 -0.000000 0.000000 7.060465 -8.953865 4.840430 3.140317 -8.945909 -3.162061 0.389781 3.801393 -0.511387 -17.105993 18.137601 11.493232 -1.721554 28.030746 -16.049100 -2.369249 -16.491197 -6.212852 -24.869032 -13.451080 -4.347203 61.107384 -55.129951 -84.049422 6.719486 -17.292475 -71.607361 -10.092584 15.218940 -8.308158 1.921582 29.634071 -24.503076 -62.836288 66.054492 -83.717086 -7.989735 17.285211 -45.125806 
1.160635 0.713155 0.944665 27.665989 5.187034 85.303755 -0.569695 16.703185 -1.122675 4.419968 24.543023 21.021121 10.238433 30.387808 -34.713554 0.000000 -0.000000 0.000000 -4.961750 14.426904 -15.031247 4.393004 32.138494 12.600509 8.133747 12.195702 -19.957014 0.000000 -0.000000 0.000000 7.981922 -9.838591 5.782271 2.804872 -9.478467 -3.460370 0.170588 3.576321 -0.587764 -18.581277 19.698198 10.953127 -2.551783 29.971031 -17.052822 -3.364296 -17.949675 -6.009913 -23.829536 -12.337097 -5.048839 56.173507 -53.136947 -79.870036 7.362359 -16.486186 -70.613248 -10.237339 15.508458 -8.398339 0.382725 28.700163 -25.652912 -56.827288 64.703709 -78.894017 -9.011153 17.097959 -44.519947 
